<svg xmlns="http://www.w3.org/2000/svg" width="340" height="28" viewBox="0 0 340 28">
    <g fill="none" fill-rule="evenodd">
        <path fill="#FF5400" d="M176.965 22.983h42.028V28h-47.222V11.2h47.222v5.133h-42.028v6.65zM171.771 0h47.222v5.017h-47.222V0zM64.458 16.333V28h-5.43V11.317h41.791v-6.3H59.028V0H106.25v28h-5.43V16.333H64.457zM123.194 0v22.867h38.542V28h-43.68V0h5.138zM42.146 22.983v-6.65H0V0h47.222v5.017H5.076v6.3h42.146V28H0v-5.017h42.146z"/>
        <path fill="#8A8A8A" d="M235.993 22.983h42.028V28h-47.222V11.2h47.222v5.133h-42.028v6.65zM230.8 0h47.222v5.017h-47.222V0zm107.43 0v16.333h-17.905L339.41 28h-10.271l-19.09-11.667h-14.792V28h-5.43V11.317h43.09v-6.3h-43.09V0h48.402z"/>
    </g>
</svg>
