<svg xmlns="http://www.w3.org/2000/svg" width="16" height="16" viewBox="0 0 16 16">
  <path fill="#000000" fill-rule="evenodd" d="M1.66935517,8.01223992 L0.0248565391,6.177313 C-0.0180681804,6.12941772 -0.0140387445,6.05579356 0.0338565361,6.01286884 C0.055217962,5.9937243 0.082893707,5.98313732 0.111578616,5.98313732 L15.888422,5.98313732 C15.9527375,5.98313732 16.0048756,6.03527537 16.0048756,6.09959092 C16.0048756,6.12827583 15.9942886,6.15595157 15.9751441,6.177313 L8.11562974,14.9469369 C8.05839678,15.0107972 7.96023124,15.0161698 7.89637087,14.9589369 C7.8921551,14.9551586 7.88814912,14.9511526 7.88437087,14.9469369 L3.63068306,10.200684 C3.58775834,10.1527888 3.59178778,10.0791646 3.63968306,10.0362399 C3.66104448,10.0170953 3.68872023,10.0065084 3.71740514,10.0065084 L6.18756609,10.0065084 C6.27595203,10.0065084 6.36015031,10.044171 6.41906385,10.1100593 L7.89449789,11.7601697 C7.93736734,11.8081145 8.0109868,11.8122289 8.05893156,11.7693594 C8.06216345,11.7664696 8.06523144,11.7634016 8.06812122,11.7601697 L11.2691104,8.18021584 C11.2834003,8.16423425 11.2820288,8.13969443 11.2660472,8.12540461 C11.2589309,8.1190416 11.2497194,8.11552397 11.2401732,8.11552397 L1.90061404,8.11552397 C1.81235293,8.11552397 1.72826136,8.07796728 1.66935517,8.01223992 Z M1.44559336,3.89792872 L3.05591885,2.10315462 C3.11482136,2.03750534 3.19886112,2 3.28706166,2 L12.712939,2 C12.8011395,2 12.8851792,2.03750534 12.9440818,2.10315462 L14.5544073,3.89792872 C14.5973588,3.94579997 14.5933706,4.01942637 14.5454993,4.06237789 C14.5241319,4.0815494 14.4964361,4.09215294 14.4677287,4.09215294 L1.53227191,4.09215294 C1.46795636,4.09215294 1.41581831,4.04001489 1.41581831,3.97569934 C1.41581831,3.94699196 1.42642185,3.91929616 1.44559336,3.89792872 Z"/>
</svg>
